<svg width="16" height="16" viewBox="0 0 16 16" fill="none" xmlns="http://www.w3.org/2000/svg">
<path d="M7.50065 8.56605V10.7327C7.50065 10.8746 7.54851 10.9934 7.64424 11.0891C7.73996 11.1849 7.85876 11.2327 8.00063 11.2327C8.14251 11.2327 8.26131 11.1849 8.35703 11.0891C8.45276 10.9934 8.50062 10.8746 8.50062 10.7327V8.56605H10.6673C10.8092 8.56605 10.928 8.51819 11.0237 8.42247C11.1194 8.32674 11.1673 8.20794 11.1673 8.06606C11.1673 7.92419 11.1194 7.80539 11.0237 7.70966C10.928 7.61394 10.8092 7.56608 10.6673 7.56608H8.50062V5.3994C8.50062 5.25752 8.45276 5.13872 8.35703 5.043C8.26131 4.94728 8.14251 4.89941 8.00063 4.89941C7.85876 4.89941 7.73996 4.94728 7.64424 5.043C7.54851 5.13872 7.50065 5.25752 7.50065 5.3994V7.56608H5.33397C5.19209 7.56608 5.07329 7.61394 4.97757 7.70966C4.88185 7.80539 4.83398 7.92419 4.83398 8.06606C4.83398 8.20794 4.88185 8.32674 4.97757 8.42247C5.07329 8.51819 5.19209 8.56605 5.33397 8.56605H7.50065ZM3.53912 13.7327C3.20236 13.7327 2.91732 13.616 2.68398 13.3827C2.45065 13.1494 2.33398 12.8643 2.33398 12.5276V3.60455C2.33398 3.26779 2.45065 2.98275 2.68398 2.74941C2.91732 2.51608 3.20236 2.39941 3.53912 2.39941H12.4622C12.7989 2.39941 13.084 2.51608 13.3173 2.74941C13.5506 2.98275 13.6673 3.26779 13.6673 3.60455V12.5276C13.6673 12.8643 13.5506 13.1494 13.3173 13.3827C13.084 13.616 12.7989 13.7327 12.4622 13.7327H3.53912ZM3.53912 12.7327H12.4622C12.5134 12.7327 12.5605 12.7114 12.6032 12.6686C12.6459 12.6259 12.6673 12.5789 12.6673 12.5276V3.60455C12.6673 3.55326 12.6459 3.50624 12.6032 3.4635C12.5605 3.42076 12.5134 3.3994 12.4622 3.3994H3.53912C3.48783 3.3994 3.44081 3.42076 3.39807 3.4635C3.35533 3.50624 3.33397 3.55326 3.33397 3.60455V12.5276C3.33397 12.5789 3.35533 12.6259 3.39807 12.6686C3.44081 12.7114 3.48783 12.7327 3.53912 12.7327Z" fill="white"/>
</svg>
