<svg width="20" height="20" viewBox="0 0 20 20" fill="none" xmlns="http://www.w3.org/2000/svg">
<g id="add_box_FILL0_wght300_GRAD0_opsz24 3">
<path id="Vector" d="M9.37435 10.7083V13.4166C9.37435 13.594 9.43418 13.7425 9.55383 13.8621C9.67348 13.9818 9.82198 14.0416 9.99933 14.0416C10.1767 14.0416 10.3252 13.9818 10.4448 13.8621C10.5645 13.7425 10.6243 13.594 10.6243 13.4166V10.7083H13.3327C13.51 10.7083 13.6585 10.6485 13.7782 10.5288C13.8978 10.4092 13.9576 10.2607 13.9576 10.0833C13.9576 9.90597 13.8978 9.75747 13.7782 9.63781C13.6585 9.51816 13.51 9.45833 13.3327 9.45833H10.6243V6.74998C10.6243 6.57263 10.5645 6.42413 10.4448 6.30448C10.3252 6.18483 10.1767 6.125 9.99933 6.125C9.82198 6.125 9.67348 6.18483 9.55383 6.30448C9.43418 6.42413 9.37435 6.57263 9.37435 6.74998V9.45833H6.666C6.48865 9.45833 6.34015 9.51816 6.2205 9.63781C6.10084 9.75747 6.04102 9.90597 6.04102 10.0833C6.04102 10.2607 6.10084 10.4092 6.2205 10.5288C6.34015 10.6485 6.48865 10.7083 6.666 10.7083H9.37435ZM4.42243 17.1666C4.00149 17.1666 3.64518 17.0208 3.35352 16.7291C3.06185 16.4375 2.91602 16.0812 2.91602 15.6602V4.50642C2.91602 4.08547 3.06185 3.72917 3.35352 3.4375C3.64518 3.14583 4.00149 3 4.42243 3H15.5762C15.9972 3 16.3535 3.14583 16.6451 3.4375C16.9368 3.72917 17.0826 4.08547 17.0826 4.50642V15.6602C17.0826 16.0812 16.9368 16.4375 16.6451 16.7291C16.3535 17.0208 15.9972 17.1666 15.5762 17.1666H4.42243ZM4.42243 15.9166H15.5762C15.6403 15.9166 15.6991 15.8899 15.7525 15.8365C15.806 15.7831 15.8327 15.7243 15.8327 15.6602V4.50642C15.8327 4.44231 15.806 4.38354 15.7525 4.3301C15.6991 4.27669 15.6403 4.24998 15.5762 4.24998H4.42243C4.35832 4.24998 4.29955 4.27669 4.24612 4.3301C4.1927 4.38354 4.16599 4.44231 4.16599 4.50642V15.6602C4.16599 15.7243 4.1927 15.7831 4.24612 15.8365C4.29955 15.8899 4.35832 15.9166 4.42243 15.9166Z" fill="#787486"/>
</g>
</svg>
