<svg xmlns="http://www.w3.org/2000/svg" width="20" height="20" viewBox="0 0 20 20" fill="none">
  <path d="M4.42316 18.657C4.00222 18.657 3.64591 18.5111 3.35425 18.2195C3.06258 17.9278 2.91675 17.5715 2.91675 17.1506V5.99677C2.91675 5.57582 3.06258 5.21952 3.35425 4.92785C3.64591 4.63618 4.00222 4.49035 4.42316 4.49035H5.57702V3.36854C5.57702 3.18586 5.63819 3.03335 5.76052 2.91102C5.88284 2.7887 6.03535 2.72754 6.21804 2.72754C6.40072 2.72754 6.55323 2.7887 6.67556 2.91102C6.79788 3.03335 6.85904 3.18586 6.85904 3.36854V4.49035H13.1731V3.35252C13.1731 3.17517 13.2329 3.02667 13.3526 2.90702C13.4723 2.78737 13.6208 2.72754 13.7981 2.72754C13.9755 2.72754 14.1239 2.78737 14.2436 2.90702C14.3633 3.02667 14.4231 3.17517 14.4231 3.35252V4.49035H15.577C15.9979 4.49035 16.3542 4.63618 16.6459 4.92785C16.9375 5.21952 17.0834 5.57582 17.0834 5.99677V17.1506C17.0834 17.5715 16.9375 17.9278 16.6459 18.2195C16.3542 18.5111 15.9979 18.657 15.577 18.657H4.42316ZM4.42316 17.407H15.577C15.6411 17.407 15.6998 17.3803 15.7533 17.3269C15.8067 17.2734 15.8334 17.2147 15.8334 17.1506V9.3301H4.16673V17.1506C4.16673 17.2147 4.19344 17.2734 4.24685 17.3269C4.30028 17.3803 4.35905 17.407 4.42316 17.407ZM4.16673 8.08012H15.8334V5.99677C15.8334 5.93266 15.8067 5.87389 15.7533 5.82046C15.6998 5.76704 15.6411 5.74033 15.577 5.74033H4.42316C4.35905 5.74033 4.30028 5.76704 4.24685 5.82046C4.19344 5.87389 4.16673 5.93266 4.16673 5.99677V8.08012Z" fill="#9FA6B2"/>
</svg>