<svg xmlns="http://www.w3.org/2000/svg" width="22" height="22" viewBox="0 0 22 22" fill="none">
  <path d="M4.86531 20.5224C4.40227 20.5224 4.01034 20.362 3.6895 20.0411C3.36867 19.7203 3.20825 19.3284 3.20825 18.8653V6.59615C3.20825 6.13311 3.36867 5.74118 3.6895 5.42034C4.01034 5.09951 4.40227 4.93909 4.86531 4.93909H6.13455V3.7051C6.13455 3.50415 6.20183 3.33639 6.3364 3.20183C6.47095 3.06728 6.63871 3 6.83967 3C7.04062 3 7.20838 3.06728 7.34295 3.20183C7.4775 3.33639 7.54477 3.50415 7.54477 3.7051V4.93909H14.4903V3.68748C14.4903 3.4924 14.5561 3.32904 14.6877 3.19743C14.8193 3.06581 14.9827 3 15.1777 3C15.3728 3 15.5362 3.06581 15.6678 3.19743C15.7994 3.32904 15.8652 3.4924 15.8652 3.68748V4.93909H17.1345C17.5975 4.93909 17.9895 5.09951 18.3103 5.42034C18.6311 5.74118 18.7915 6.13311 18.7915 6.59615V18.8653C18.7915 19.3284 18.6311 19.7203 18.3103 20.0411C17.9895 20.362 17.5975 20.5224 17.1345 20.5224H4.86531ZM4.86531 19.1474H17.1345C17.205 19.1474 17.2697 19.118 17.3284 19.0593C17.3872 19.0005 17.4166 18.9358 17.4166 18.8653V10.2628H4.58323V18.8653C4.58323 18.9358 4.61261 19.0005 4.67137 19.0593C4.73014 19.118 4.79479 19.1474 4.86531 19.1474ZM4.58323 8.88784H17.4166V6.59615C17.4166 6.52563 17.3872 6.46098 17.3284 6.40221C17.2697 6.34345 17.205 6.31407 17.1345 6.31407H4.86531C4.79479 6.31407 4.73014 6.34345 4.67137 6.40221C4.61261 6.46098 4.58323 6.52563 4.58323 6.59615V8.88784Z" fill="#333236"/>
</svg>